<svg version="1.1" xmlns="http://www.w3.org/2000/svg" viewBox="0 0 1525.4375 191.640625" width="1525.4375" height="191.640625">
  <!-- svg-source:excalidraw -->
  
  <defs>
    <style class="style-fonts">
      @font-face {
        font-family: "Virgil";
        src: url("https://excalidraw.com/Virgil.woff2");
      }
      @font-face {
        font-family: "Cascadia";
        src: url("https://excalidraw.com/Cascadia.woff2");
      }
      @font-face {
        font-family: "Assistant";
        src: url("https://excalidraw.com/Assistant-Regular.woff2");
      }
    </style>
    
  </defs>
  <rect x="0" y="0" width="1525.4375" height="191.640625" fill="#ffffff"></rect><g stroke-linecap="round" transform="translate(10 47.70703125) rotate(0 115.806640625 66.966796875)"><path d="M32 0 C67 -3.43, 105.55 -0.23, 199.61 0 M32 0 C89.05 0.76, 147.31 1.46, 199.61 0 M199.61 0 C220.26 0.3, 233.15 9.27, 231.61 32 M199.61 0 C218.78 -2.01, 232.66 11.35, 231.61 32 M231.61 32 C231.29 58.15, 232.55 83.06, 231.61 101.93 M231.61 32 C231.86 51.17, 232.51 70.83, 231.61 101.93 M231.61 101.93 C230.72 124.56, 219.51 133.79, 199.61 133.93 M231.61 101.93 C231.16 122.52, 220.64 135.57, 199.61 133.93 M199.61 133.93 C156.28 135.61, 117.38 135.21, 32 133.93 M199.61 133.93 C144.81 135.6, 91.21 135.68, 32 133.93 M32 133.93 C12.27 132.43, 0.24 122.16, 0 101.93 M32 133.93 C12.67 135.17, -0.43 121.65, 0 101.93 M0 101.93 C-1.37 77.64, -0.33 54.12, 0 32 M0 101.93 C-0.04 74.56, -0.22 46.75, 0 32 M0 32 C0.86 11.45, 12.48 1.84, 32 0 M0 32 C-1.07 9.15, 11.31 0.45, 32 0" stroke="#1e1e1e" stroke-width="2" fill="none"></path></g><g transform="translate(96.54666900634766 102.173828125) rotate(0 29.259971618652344 12.5)"><text x="29.259971618652344" y="17.52" font-family="Virgil, Segoe UI Emoji" font-size="20px" fill="#1e1e1e" text-anchor="middle" style="white-space: pre;" direction="ltr" dominant-baseline="alphabetic">Istio </text></g><g stroke-linecap="round" transform="translate(1293.66796875 44.99609375) rotate(0 110.884765625 65.033203125)"><path d="M32 0 C87.58 -0.74, 137.36 -1.53, 189.77 0 M32 0 C91.69 -0.88, 153.06 0.03, 189.77 0 M189.77 0 C209.68 -1.53, 222.64 10.18, 221.77 32 M189.77 0 C213.16 -0.48, 220.77 10.54, 221.77 32 M221.77 32 C223.57 50.55, 220.79 66.98, 221.77 98.07 M221.77 32 C220.43 56.15, 221.26 80.37, 221.77 98.07 M221.77 98.07 C219.84 120.03, 210.07 129.69, 189.77 130.07 M221.77 98.07 C220.46 117.14, 211.48 130.31, 189.77 130.07 M189.77 130.07 C126.82 129.07, 66.01 130.3, 32 130.07 M189.77 130.07 C141.83 132.35, 91.97 131.17, 32 130.07 M32 130.07 C8.93 129.34, 0.26 119.97, 0 98.07 M32 130.07 C8.42 128.38, 1.56 119.77, 0 98.07 M0 98.07 C-0.31 81.71, -1.67 66.11, 0 32 M0 98.07 C-0.94 79.12, 0.26 61.21, 0 32 M0 32 C1.89 11.7, 9.45 -1.91, 32 0 M0 32 C-1.36 12.8, 12.11 2.15, 32 0" stroke="#1e1e1e" stroke-width="2" fill="none"></path></g><g transform="translate(1334.852798461914 97.529296875) rotate(0 69.69993591308594 12.5)"><text x="69.69993591308594" y="17.52" font-family="Virgil, Segoe UI Emoji" font-size="20px" fill="#1e1e1e" text-anchor="middle" style="white-space: pre;" direction="ltr" dominant-baseline="alphabetic">Ngingx Ingress</text></g><g stroke-linecap="round"><g transform="translate(257.2890625 115.73985874724622) rotate(0 235.01171875 -1.5761318830781477)"><path d="M-0.83 -0.44 C77.44 -0.78, 390.39 -1.9, 469.02 -2.49 M0.94 -1.71 C79.61 -2.36, 392.92 -4.03, 471.2 -4.26" stroke="#1e1e1e" stroke-width="2" fill="none"></path></g><g transform="translate(257.2890625 115.73985874724622) rotate(0 235.01171875 -1.5761318830781477)"><path d="M447.74 4.39 C452.97 0.69, 460.72 1.68, 471.2 -4.26 M447.74 4.39 C452.34 2.65, 459.29 -0.16, 471.2 -4.26" stroke="#1e1e1e" stroke-width="2" fill="none"></path></g><g transform="translate(257.2890625 115.73985874724622) rotate(0 235.01171875 -1.5761318830781477)"><path d="M447.67 -12.71 C452.85 -12.09, 460.62 -6.79, 471.2 -4.26 M447.67 -12.71 C452.19 -10.49, 459.16 -9.35, 471.2 -4.26" stroke="#1e1e1e" stroke-width="2" fill="none"></path></g></g><mask></mask><g transform="translate(286.0390625 67.328125) rotate(0 199.70982360839844 12.5)"><text x="0" y="17.52" font-family="Virgil, Segoe UI Emoji" font-size="20px" fill="#1e1e1e" text-anchor="start" style="white-space: pre;" direction="ltr" dominant-baseline="alphabetic">SNI *.ingress.seed-name.seed.example.com</text></g><g stroke-linecap="round"><g transform="translate(728.25390625 62.45703125) rotate(0 0.75390625 50.953125)"><path d="M0.35 -0.86 C0.75 16.03, 2.14 83.94, 2.23 101.08 M-0.92 1.31 C-0.6 18.35, 1.54 85.18, 1.66 102.18" stroke="#1e1e1e" stroke-width="2" fill="none"></path></g></g><mask></mask><g stroke-linecap="round"><g transform="translate(729.890625 63.26171875) rotate(0 28.419921875 25.46875)"><path d="M-1.02 0.98 C8.42 9.71, 47.96 43.29, 57.64 51.49 M0.64 0.45 C9.91 8.89, 47.81 41.21, 57.12 49.65" stroke="#1e1e1e" stroke-width="2" fill="none"></path></g></g><mask></mask><g stroke-linecap="round"><g transform="translate(730.24609375 165.57421875) rotate(0 30.078125 -24.794921875)"><path d="M0.37 1.08 C10.3 -7.19, 49.3 -40.95, 59.18 -49.5 M-0.9 0.6 C9.44 -7.46, 51.45 -39.61, 61.38 -47.91" stroke="#1e1e1e" stroke-width="2" fill="none"></path></g></g><mask></mask><g transform="translate(654.53125 13.21484375) rotate(0 71.35995483398438 12.5)"><text x="0" y="17.52" font-family="Virgil, Segoe UI Emoji" font-size="20px" fill="#1e1e1e" text-anchor="start" style="white-space: pre;" direction="ltr" dominant-baseline="alphabetic">RBAC Shoot A</text></g><g stroke-linecap="round"><g transform="translate(930.87109375 60.7109375) rotate(0 0.75390625 50.953125)"><path d="M0.55 0.79 C0.65 18.05, 0.68 85.55, 0.76 102.42 M-0.62 0.15 C-0.14 17.16, 2.97 83.36, 3.08 100.57" stroke="#1e1e1e" stroke-width="2" fill="none"></path></g></g><mask></mask><g stroke-linecap="round"><g transform="translate(932.5078125 61.515625) rotate(0 28.419921875 25.46875)"><path d="M0.79 -0.75 C10.54 7.57, 47.99 41.88, 57.36 50.46 M-0.26 1.47 C9.48 9.91, 47.26 43.33, 56.68 51.74" stroke="#1e1e1e" stroke-width="2" fill="none"></path></g></g><mask></mask><g stroke-linecap="round"><g transform="translate(932.86328125 163.828125) rotate(0 30.078125 -24.794921875)"><path d="M-0.75 0.52 C9.11 -7.86, 49.56 -41.18, 59.67 -49.46 M1.06 -0.25 C10.67 -8.48, 48.81 -39.35, 58.47 -47.85" stroke="#1e1e1e" stroke-width="2" fill="none"></path></g></g><mask></mask><g transform="translate(857.1484375 11.46875) rotate(0 72.06995391845703 12.5)"><text x="0" y="17.52" font-family="Virgil, Segoe UI Emoji" font-size="20px" fill="#1e1e1e" text-anchor="start" style="white-space: pre;" direction="ltr" dominant-baseline="alphabetic">RBAC Shoot B</text></g><g stroke-linecap="round"><g transform="translate(1128.49609375 59.2421875) rotate(0 0.75390625 50.953125)"><path d="M0.13 -0.58 C0.41 16.21, 1.98 84.63, 2.03 101.65 M-1.26 1.73 C-1.12 18.62, 0.68 86.23, 1.36 103.05" stroke="#1e1e1e" stroke-width="2" fill="none"></path></g></g><mask></mask><g stroke-linecap="round"><g transform="translate(1130.1328125 60.046875) rotate(0 28.419921875 25.46875)"><path d="M-0.58 0.52 C8.7 8.82, 47.08 41.5, 56.58 49.9 M1.32 -0.25 C10.34 8.15, 46.47 42.15, 55.49 50.89" stroke="#1e1e1e" stroke-width="2" fill="none"></path></g></g><mask></mask><g stroke-linecap="round"><g transform="translate(1130.48828125 162.359375) rotate(0 30.078125 -24.794921875)"><path d="M0.52 -0.26 C10.36 -8.5, 49.18 -41.96, 59.11 -49.99 M-0.66 -1.44 C9.52 -9.46, 51.28 -40.54, 61.28 -48.67" stroke="#1e1e1e" stroke-width="2" fill="none"></path></g></g><mask></mask><g transform="translate(1054.7734375 10) rotate(0 71.23995208740234 12.5)"><text x="0" y="17.52" font-family="Virgil, Segoe UI Emoji" font-size="20px" fill="#1e1e1e" text-anchor="start" style="white-space: pre;" direction="ltr" dominant-baseline="alphabetic">RBAC Shoot C</text></g><g stroke-linecap="round"><g transform="translate(792.8515625 115.97265625) rotate(0 67.322265625 -0.556640625)"><path d="M1.14 0.85 C23.79 0.43, 113.51 -1.14, 135.69 -1.58 M0.28 0.25 C22.88 -0.09, 113.13 -0.11, 135.3 -0.29" stroke="#1e1e1e" stroke-width="2" fill="none"></path></g><g transform="translate(792.8515625 115.97265625) rotate(0 67.322265625 -0.556640625)"><path d="M111.84 8.35 C119.83 7.43, 124.28 2.57, 135.3 -0.29 M111.84 8.35 C117.99 6.32, 123.09 3.84, 135.3 -0.29" stroke="#1e1e1e" stroke-width="2" fill="none"></path></g><g transform="translate(792.8515625 115.97265625) rotate(0 67.322265625 -0.556640625)"><path d="M111.77 -8.75 C119.92 -4.83, 124.38 -4.84, 135.3 -0.29 M111.77 -8.75 C117.98 -6.63, 123.09 -4.94, 135.3 -0.29" stroke="#1e1e1e" stroke-width="2" fill="none"></path></g></g><mask></mask><g stroke-linecap="round"><g transform="translate(993.65234375 113.77734375) rotate(0 64.533203125 -1.27734375)"><path d="M-0.75 -0.51 C20.83 -0.9, 108.65 -1.07, 130.14 -1.36 M1.06 -1.82 C22.51 -2.6, 108.17 -3.03, 129.75 -2.86" stroke="#1e1e1e" stroke-width="2" fill="none"></path></g><g transform="translate(993.65234375 113.77734375) rotate(0 64.533203125 -1.27734375)"><path d="M106.26 5.7 C113.72 4.57, 124.93 -1.79, 129.75 -2.86 M106.26 5.7 C114.88 3.69, 121.07 0.63, 129.75 -2.86" stroke="#1e1e1e" stroke-width="2" fill="none"></path></g><g transform="translate(993.65234375 113.77734375) rotate(0 64.533203125 -1.27734375)"><path d="M106.26 -11.41 C113.86 -6.43, 125.07 -6.7, 129.75 -2.86 M106.26 -11.41 C114.75 -7.86, 120.94 -5.38, 129.75 -2.86" stroke="#1e1e1e" stroke-width="2" fill="none"></path></g></g><mask></mask><g stroke-linecap="round"><g transform="translate(1194.00390625 113.20703125) rotate(0 45.30859375 -0.46484375)"><path d="M-0.21 -0.77 C15.11 -1.08, 76.49 -1.24, 91.6 -1.11 M-1.78 1.44 C13.49 1.26, 75.94 0.88, 91.17 0.33" stroke="#1e1e1e" stroke-width="2" fill="none"></path></g><g transform="translate(1194.00390625 113.20703125) rotate(0 45.30859375 -0.46484375)"><path d="M67.84 9.32 C72.88 8.55, 80.23 4.2, 91.17 0.33 M67.84 9.32 C76.55 6.29, 84.78 2.79, 91.17 0.33" stroke="#1e1e1e" stroke-width="2" fill="none"></path></g><g transform="translate(1194.00390625 113.20703125) rotate(0 45.30859375 -0.46484375)"><path d="M67.52 -7.78 C72.75 -3.88, 80.19 -3.56, 91.17 0.33 M67.52 -7.78 C76.4 -4.36, 84.76 -1.4, 91.17 0.33" stroke="#1e1e1e" stroke-width="2" fill="none"></path></g></g><mask></mask></svg>